<?xml version="1.0" standalone="no"?><!DOCTYPE svg PUBLIC "-//W3C//DTD SVG 1.1//EN" "http://www.w3.org/Graphics/SVG/1.1/DTD/svg11.dtd"><svg t="1756784014352" class="icon" viewBox="0 0 1024 1024" version="1.1" xmlns="http://www.w3.org/2000/svg" p-id="962" width="32" height="32" xmlns:xlink="http://www.w3.org/1999/xlink"><path d="M801.24 184.52c-0.18-11.31-9.41-20.37-20.71-20.37h-77.64v-18.63c0-40.34-32.83-73.17-73.19-73.17H393.65c-40.34 0-73.17 32.83-73.17 73.17v18.63h-64.51c-11.17 0-20.33 8.86-20.69 20.01l-23.87 704.02c-0.34 9.73 6.15 18.39 15.6 20.77 5.36 1.38 133.02 33.4 284.68 33.4 151.64 0 280.05-32.02 285.45-33.38 9.33-2.37 15.8-10.82 15.64-20.43l-11.54-704.02z m-289.16 247.5c-28.97 0-52.46-23.49-52.46-52.46 0-28.97 23.49-52.46 52.46-52.46s52.46 23.49 52.46 52.46c0 28.98-23.49 52.46-52.46 52.46z" p-id="963" fill="#bfbfbf"></path></svg>